# xmcd
#
# Track frame offsets: 
#        150
#        48024
#        60201
#        73169
#        83471
#        94979
#        106716
#        119345
#        130849
#        144202
#        156546
#        170979
#        182047
#        195942
#        206997
#        220621
#        232918
#        243321
#
# Disc length: 3364 seconds
#
# Revision: 3
# Processed by: cddbd v1.5.2PL0 Copyright (c) Steve Scherf et al.
# Submitted via: ExactAudioCopy v1.0b4
#
DISCID=f20d2212
DTITLE=Luiz Gonzaga - Sá Marica Parteira
DYEAR=2005
DGENRE=Pé de Serra
TTITLE0=Samarica Parteira
TTITLE1=Cego Aderaldo
TTITLE2=Vida De Vaqueiro
TTITLE3=A Profecia
TTITLE4=Tô Sobrando
TTITLE5=Cabra Da Peste
TTITLE6=Moreninha, Moreninha
TTITLE7=Sertão Sofredor
TTITLE8=Amanhã Eu Vou
TTITLE9=Moreninha, Tentação
TTITLE10=Mamulengo
TTITLE11=Velho Pescador
TTITLE12=O Passo Da Rancheira
TTITLE13=A Letra I
TTITLE14=Sertanejo Do Norte
TTITLE15=Onde Tú Tá Neném
TTITLE16=Moça Da Feira
TTITLE17=Baião De Dois
EXTD=
EXTT0=
EXTT1=
EXTT2=
EXTT3=
EXTT4=
EXTT5=
EXTT6=
EXTT7=
EXTT8=
EXTT9=
EXTT10=
EXTT11=
EXTT12=
EXTT13=
EXTT14=
EXTT15=
EXTT16=
EXTT17=
PLAYORDER=
